{
	"asset":{
		"generator":"Khronos glTF Blender I/O v4.4.56",
		"version":"2.0"
	},
	"extensionsUsed":[
		"KHR_materials_emissive_strength",
		"KHR_materials_specular",
		"KHR_materials_ior"
	],
	"scene":0,
	"scenes":[
		{
			"name":"Scene",
			"nodes":[
				58
			]
		}
	],
	"nodes":[
		{
			"name":"Head",
			"rotation":[
				0.07623451948165894,
				1.1886236706004638e-07,
				-9.087862906653754e-09,
				0.9970899224281311
			],
			"scale":[
				1,
				1.0000001192092896,
				1
			],
			"translation":[
				-8.882443188634216e-15,
				0.0891362726688385,
				-3.725290298461914e-08
			]
		},
		{
			"children":[
				0
			],
			"name":"Neck",
			"rotation":[
				0.1584109663963318,
				-1.1770407581934705e-07,
				-1.8884055208445716e-08,
				0.9873732924461365
			],
			"scale":[
				1,
				0.9999998807907104,
				0.9999998211860657
			],
			"translation":[
				-3.069615554396001e-25,
				0.3050542175769806,
				1.30385160446167e-08
			]
		},
		{
			"name":"Bone.012",
			"rotation":[
				-9.126962652317161e-08,
				7.008202373981476e-07,
				5.906913429498672e-07,
				1
			],
			"scale":[
				1,
				0.9999999403953552,
				0.9999999403953552
			],
			"translation":[
				-1.862645149230957e-09,
				0.054977912455797195,
				9.313225746154785e-10
			]
		},
		{
			"children":[
				2
			],
			"name":"LeftMiddleDistal",
			"rotation":[
				-0.0797531008720398,
				-0.0005202275351621211,
				-0.18254916369915009,
				0.9799566268920898
			],
			"scale":[
				0.9999998807907104,
				0.9999999403953552,
				0.9999999403953552
			],
			"translation":[
				-7.171183824539185e-08,
				0.060872580856084824,
				4.6566128730773926e-09
			]
		},
		{
			"children":[
				3
			],
			"name":"LeftMiddleIntermediate",
			"rotation":[
				-1.4493709343810224e-08,
				-7.543713564928112e-08,
				-8.847566235203885e-09,
				1
			],
			"scale":[
				0.9999999403953552,
				0.9999999403953552,
				0.9999999403953552
			],
			"translation":[
				-2.7474015951156616e-08,
				0.06087244302034378,
				-2.60770320892334e-08
			]
		},
		{
			"children":[
				4
			],
			"name":"LeftMiddleProximal",
			"rotation":[
				-0.1315717250108719,
				0.6270792484283447,
				-0.10795365273952484,
				0.7601358890533447
			],
			"scale":[
				1.0000001192092896,
				1,
				1
			],
			"translation":[
				1.4901161193847656e-08,
				0.13709795475006104,
				1.2316741049289703e-07
			]
		},
		{
			"name":"Bone.016",
			"rotation":[
				-9.359791874885559e-08,
				1.0114163160324097e-06,
				7.450579460055451e-07,
				1
			],
			"scale":[
				1.0000001192092896,
				1.0000001192092896,
				1
			],
			"translation":[
				-5.494803190231323e-08,
				0.04226881265640259,
				-2.514570951461792e-08
			]
		},
		{
			"children":[
				6
			],
			"name":"LeftIndexDistal",
			"rotation":[
				-0.07975286990404129,
				-0.0005199276492930949,
				-0.18254929780960083,
				0.9799566268920898
			],
			"translation":[
				0,
				0.046800754964351654,
				1.210719347000122e-08
			]
		},
		{
			"children":[
				7
			],
			"name":"LeftIndexIntermediate",
			"rotation":[
				-3.582681529223919e-07,
				-1.3317912817001343e-07,
				-1.0337680578231812e-07,
				1
			],
			"translation":[
				-2.9802322387695312e-08,
				0.04680081456899643,
				-4.284083843231201e-08
			]
		},
		{
			"children":[
				8
			],
			"name":"LeftIndexProximal",
			"rotation":[
				-0.1315716654062271,
				0.6270790100097656,
				-0.10795360058546066,
				0.760136067867279
			],
			"translation":[
				0.06660398840904236,
				0.17394743859767914,
				-0.040347661823034286
			]
		},
		{
			"name":"Bone.020",
			"rotation":[
				-2.2782481323702086e-07,
				8.344651405423065e-07,
				1.3350510243981262e-06,
				1
			],
			"scale":[
				0.9999999403953552,
				0.9999998807907104,
				0.9999998807907104
			],
			"translation":[
				4.0512531995773315e-08,
				0.04149682819843292,
				-6.239861249923706e-08
			]
		},
		{
			"children":[
				10
			],
			"name":"LeftRingDistal",
			"rotation":[
				-0.008190254680812359,
				0.01425568014383316,
				-0.199042409658432,
				0.9798529744148254
			],
			"translation":[
				6.449408829212189e-08,
				0.04594624042510986,
				-3.259629011154175e-08
			]
		},
		{
			"children":[
				11
			],
			"name":"LeftRingIntermediate",
			"rotation":[
				-1.7837737686932087e-07,
				-7.417984306812286e-07,
				5.706679075956345e-07,
				1
			],
			"translation":[
				2.2118911147117615e-08,
				0.04594617336988449,
				-9.313225746154785e-09
			]
		},
		{
			"children":[
				12
			],
			"name":"LeftRingProximal",
			"rotation":[
				-0.2016795575618744,
				0.6263777017593384,
				-0.08855243027210236,
				0.7477532029151917
			],
			"scale":[
				0.9999999403953552,
				0.9999998807907104,
				0.9999999403953552
			],
			"translation":[
				-0.05351374298334122,
				0.14189676940441132,
				-0.039207179099321365
			]
		},
		{
			"name":"Bone.024",
			"rotation":[
				-1.6763806343078613e-07,
				7.790513336658478e-07,
				1.537613570690155e-06,
				1
			],
			"translation":[
				2.2351741790771484e-08,
				0.029596412554383278,
				-4.6566128730773926e-09
			]
		},
		{
			"children":[
				14
			],
			"name":"LeftLittleDistal",
			"rotation":[
				0.002174805849790573,
				0.018689479678869247,
				-0.1991988867521286,
				0.9797784090042114
			],
			"scale":[
				1,
				0.9999999403953552,
				1
			],
			"translation":[
				-1.2725649867206812e-08,
				0.03276993706822395,
				-2.9802322387695312e-08
			]
		},
		{
			"children":[
				15
			],
			"name":"LeftLittleIntermediate",
			"rotation":[
				1.0330405331160364e-07,
				-1.1080410331487656e-06,
				8.777424227446318e-07,
				1
			],
			"scale":[
				1.0000001192092896,
				0.9999999403953552,
				1
			],
			"translation":[
				4.009780241176486e-08,
				0.03276996314525604,
				-3.702007234096527e-08
			]
		},
		{
			"children":[
				16
			],
			"name":"LeftLittleProximal",
			"rotation":[
				-0.27258506417274475,
				0.6068623065948486,
				-0.14457595348358154,
				0.732470691204071
			],
			"scale":[
				1,
				1.0000001192092896,
				1
			],
			"translation":[
				-0.10601409524679184,
				0.127967968583107,
				-0.04609224200248718
			]
		},
		{
			"name":"LeftThumbDistal",
			"rotation":[
				-0.0080257598310709,
				-3.339481190778315e-05,
				0.025901619344949722,
				0.9996322989463806
			],
			"scale":[
				0.9999999403953552,
				0.9999999403953552,
				0.9999998807907104
			],
			"translation":[
				-3.888271749019623e-08,
				0.03817187622189522,
				-2.7153873816132545e-08
			]
		},
		{
			"children":[
				18
			],
			"name":"LeftThumbProximal",
			"rotation":[
				0.07550809532403946,
				0.975797712802887,
				0.20425550639629364,
				0.019925104454159737
			],
			"scale":[
				0.9999998211860657,
				1.000000238418579,
				1
			],
			"translation":[
				-6.146728992462158e-08,
				0.05218322575092316,
				2.8870999813079834e-08
			]
		},
		{
			"children":[
				19
			],
			"name":"LeftThumbMetacarpal",
			"rotation":[
				-0.3073498606681824,
				-0.7435030341148376,
				0.16880367696285248,
				0.5694248676300049
			],
			"scale":[
				1.0000001192092896,
				1,
				1
			],
			"translation":[
				0.14635854959487915,
				0.06222722679376602,
				-0.12478268146514893
			]
		},
		{
			"children":[
				5,
				9,
				13,
				17,
				20
			],
			"name":"LeftHand",
			"rotation":[
				0.03446697071194649,
				0.006607114337384701,
				-0.008335882797837257,
				0.9993492364883423
			],
			"scale":[
				0.9999998211860657,
				1,
				0.9999998807907104
			],
			"translation":[
				-5.21540641784668e-08,
				0.34967127442359924,
				3.3396645449101925e-08
			]
		},
		{
			"children":[
				21
			],
			"name":"LeftLowerArm",
			"rotation":[
				0.035229768604040146,
				0.002980305114760995,
				-0.24914655089378357,
				0.9678202271461487
			],
			"translation":[
				-1.6763806343078613e-08,
				0.42810720205307007,
				-6.138361641205847e-08
			]
		},
		{
			"children":[
				22
			],
			"name":"LeftUpperArm",
			"rotation":[
				-0.35260990262031555,
				-0.6131168007850647,
				-0.2962644100189209,
				0.6418578624725342
			],
			"scale":[
				0.9999999403953552,
				0.9999998807907104,
				1
			],
			"translation":[
				5.261845004156385e-08,
				0.2701581120491028,
				1.5998580238374416e-10
			]
		},
		{
			"children":[
				23
			],
			"name":"LeftShoulder",
			"rotation":[
				-0.0284956693649292,
				-0.03507737070322037,
				-0.7753756642341614,
				0.6298811435699463
			],
			"scale":[
				0.9999998807907104,
				0.9999999403953552,
				0.9999998807907104
			],
			"translation":[
				0.10117796063423157,
				0.25540146231651306,
				-0.0903240442276001
			]
		},
		{
			"name":"Bone.038",
			"rotation":[
				-4.976755718644199e-08,
				8.456409545942734e-07,
				-6.111804395914078e-07,
				1
			],
			"scale":[
				1,
				0.9999999403953552,
				0.9999999403953552
			],
			"translation":[
				3.119930624961853e-08,
				0.054977938532829285,
				-2.514570951461792e-08
			]
		},
		{
			"children":[
				25
			],
			"name":"RightMiddleDistal",
			"rotation":[
				-0.08471444249153137,
				0.0017675658455118537,
				0.18030032515525818,
				0.9799551367759705
			],
			"scale":[
				1.0000001192092896,
				0.9999999403953552,
				1.0000001192092896
			],
			"translation":[
				9.872019290924072e-08,
				0.060872502624988556,
				-1.7695128917694092e-08
			]
		},
		{
			"children":[
				26
			],
			"name":"RightMiddleIntermediate",
			"rotation":[
				-1.1385419895759696e-07,
				-4.284084553773937e-08,
				6.053597445543346e-08,
				1
			],
			"scale":[
				0.9999999403953552,
				0.9999999403953552,
				0.9999999403953552
			],
			"translation":[
				-2.8870999813079834e-08,
				0.06087266281247139,
				-3.725290298461914e-09
			]
		},
		{
			"children":[
				27
			],
			"name":"RightMiddleProximal",
			"rotation":[
				0.07302003353834152,
				0.6068299412727356,
				0.1537308245897293,
				0.7763969898223877
			],
			"translation":[
				-8.940696716308594e-08,
				0.13709783554077148,
				6.332993507385254e-08
			]
		},
		{
			"name":"Bone.042",
			"rotation":[
				-8.899950643126431e-08,
				9.008216466099839e-07,
				-7.688067285016587e-07,
				1
			],
			"scale":[
				1.0000001192092896,
				1,
				1.0000001192092896
			],
			"translation":[
				-4.0046870708465576e-08,
				0.04226866737008095,
				3.725290298461914e-09
			]
		},
		{
			"children":[
				29
			],
			"name":"RightIndexDistal",
			"rotation":[
				-0.08471407741308212,
				0.0017681739991530776,
				0.18030056357383728,
				0.9799551367759705
			],
			"scale":[
				1,
				0.9999999403953552,
				1
			],
			"translation":[
				-2.7939677238464355e-08,
				0.046800680458545685,
				-9.313225746154785e-10
			]
		},
		{
			"children":[
				30
			],
			"name":"RightIndexIntermediate",
			"rotation":[
				-4.5006163418293e-07,
				-3.0710361897945404e-07,
				9.685754776000977e-08,
				1
			],
			"translation":[
				-6.05359673500061e-08,
				0.046800851821899414,
				4.377216100692749e-08
			]
		},
		{
			"children":[
				31
			],
			"name":"RightIndexProximal",
			"rotation":[
				0.07302016019821167,
				0.6068297028541565,
				0.15373072028160095,
				0.7763972282409668
			],
			"scale":[
				0.9999999403953552,
				1.0000001192092896,
				0.9999999403953552
			],
			"translation":[
				0.04168415069580078,
				0.1739473193883896,
				0.0657757818698883
			]
		},
		{
			"name":"Bone.046",
			"rotation":[
				-1.2351665645837784e-07,
				6.938353180885315e-07,
				-1.3480894267559052e-06,
				1
			],
			"scale":[
				1,
				1,
				0.9999999403953552
			],
			"translation":[
				-6.752088665962219e-08,
				0.04149686545133591,
				-3.4458935260772705e-08
			]
		},
		{
			"children":[
				33
			],
			"name":"RightRingDistal",
			"rotation":[
				-0.009741351939737797,
				0.015919607132673264,
				0.19897253811359406,
				0.979827344417572
			],
			"scale":[
				0.9999999403953552,
				1,
				1
			],
			"translation":[
				3.6088749766349792e-09,
				0.04594610631465912,
				1.0244548320770264e-08
			]
		},
		{
			"children":[
				34
			],
			"name":"RightRingIntermediate",
			"rotation":[
				-2.8769136406481266e-07,
				-6.698537617921829e-07,
				-4.899920895695686e-07,
				1
			],
			"translation":[
				7.3225237429142e-08,
				0.04594599828124046,
				0
			]
		},
		{
			"children":[
				35
			],
			"name":"RightRingProximal",
			"rotation":[
				0.04259134456515312,
				0.5757473707199097,
				0.21610668301582336,
				0.7874000668525696
			],
			"scale":[
				1,
				0.9999998211860657,
				0.9999999403953552
			],
			"translation":[
				-0.06537176668643951,
				0.1418967843055725,
				0.011290937662124634
			]
		},
		{
			"name":"Bone.050",
			"rotation":[
				-2.1420417795070534e-07,
				9.727664291858673e-07,
				-1.574400585013791e-06,
				1
			],
			"scale":[
				1.0000001192092896,
				1.0000001192092896,
				1
			],
			"translation":[
				-3.41096892952919e-08,
				0.029596494510769844,
				-6.51925802230835e-09
			]
		},
		{
			"children":[
				37
			],
			"name":"RightLittleDistal",
			"rotation":[
				-0.0005148514756001532,
				0.018218733370304108,
				0.19921009242534637,
				0.9797873497009277
			],
			"scale":[
				1,
				0.9999999403953552,
				0.9999999403953552
			],
			"translation":[
				5.995389074087143e-09,
				0.03276987746357918,
				9.313225746154785e-10
			]
		},
		{
			"children":[
				38
			],
			"name":"RightLittleIntermediate",
			"rotation":[
				2.8085200831640122e-09,
				-1.061940679392137e-06,
				-8.787029628365417e-07,
				1
			],
			"scale":[
				0.9999999403953552,
				0.9999998807907104,
				0.9999998807907104
			],
			"translation":[
				-5.547553882934153e-08,
				0.03276998922228813,
				-2.1886080503463745e-08
			]
		},
		{
			"children":[
				39
			],
			"name":"RightLittleProximal",
			"rotation":[
				0.08203358203172684,
				0.5651457905769348,
				0.29744791984558105,
				0.7651179432868958
			],
			"scale":[
				1,
				0.9999998807907104,
				1
			],
			"translation":[
				-0.11544941365718842,
				0.12796781957149506,
				-0.005911109037697315
			]
		},
		{
			"name":"RightThumbDistal",
			"rotation":[
				-0.008035068400204182,
				0.0003822313738055527,
				-0.025898825377225876,
				0.9996321797370911
			],
			"scale":[
				0.9999998807907104,
				0.9999998807907104,
				0.9999998807907104
			],
			"translation":[
				4.98257577419281e-08,
				0.03817174956202507,
				-8.338247425854206e-09
			]
		},
		{
			"children":[
				41
			],
			"name":"RightThumbProximal",
			"rotation":[
				0.0726994127035141,
				-0.9754557609558105,
				-0.2052718847990036,
				0.03262368217110634
			],
			"scale":[
				1.0000001192092896,
				1.0000003576278687,
				1
			],
			"translation":[
				7.450580596923828e-09,
				0.05218307673931122,
				7.310882210731506e-08
			]
		},
		{
			"children":[
				42
			],
			"name":"RightThumbMetacarpal",
			"rotation":[
				0.23108963668346405,
				-0.7321810126304626,
				-0.26373490691185,
				0.5839113593101501
			],
			"scale":[
				1,
				0.9999998807907104,
				1
			],
			"translation":[
				0.07552164047956467,
				0.06222710758447647,
				0.1768842339515686
			]
		},
		{
			"children":[
				28,
				32,
				36,
				40,
				43
			],
			"name":"RightHand",
			"rotation":[
				-0.027805622667074203,
				0.022435009479522705,
				-0.02200702205300331,
				0.999119222164154
			],
			"scale":[
				0.9999999403953552,
				0.9999999403953552,
				0.9999999403953552
			],
			"translation":[
				-2.2351741790771484e-08,
				0.349671334028244,
				1.862645149230957e-08
			]
		},
		{
			"children":[
				44
			],
			"name":"RightLowerArm",
			"rotation":[
				0.0054815844632685184,
				0.22800295054912567,
				-0.25156527757644653,
				0.9405847191810608
			],
			"scale":[
				0.9999999403953552,
				1.0000001192092896,
				0.9999999403953552
			],
			"translation":[
				-1.862645149230957e-09,
				0.4281071722507477,
				1.257285475730896e-07
			]
		},
		{
			"children":[
				45
			],
			"name":"RightUpperArm",
			"rotation":[
				0.30989715456962585,
				-0.6654624342918396,
				0.3406901955604553,
				0.5874127149581909
			],
			"scale":[
				1.0000001192092896,
				1.0000001192092896,
				1
			],
			"translation":[
				1.042576514009852e-08,
				0.27015817165374756,
				-3.311072305223206e-09
			]
		},
		{
			"children":[
				46
			],
			"name":"RightShoulder",
			"rotation":[
				-0.02849385514855385,
				0.03507593646645546,
				0.7753757834434509,
				0.6298810839653015
			],
			"scale":[
				1,
				1,
				0.9999998807907104
			],
			"translation":[
				-0.08940553665161133,
				0.25540146231651306,
				-0.0903240516781807
			]
		},
		{
			"children":[
				1,
				24,
				47
			],
			"name":"Chest",
			"rotation":[
				0.01971910148859024,
				-1.1615586097135644e-11,
				-1.0610104808628229e-11,
				0.9998055696487427
			],
			"scale":[
				1,
				1,
				0.9999999403953552
			],
			"translation":[
				-3.0357660829594124e-18,
				0.26688945293426514,
				7.450580596923828e-09
			]
		},
		{
			"children":[
				48
			],
			"name":"Spine",
			"rotation":[
				0.049014028161764145,
				2.0889552240777043e-11,
				2.0914645015857047e-11,
				0.998798131942749
			],
			"scale":[
				1,
				0.9999999403953552,
				0.9999999403953552
			],
			"translation":[
				-1.0842021724855044e-19,
				0.28889000415802,
				-4.6566128730773926e-09
			]
		},
		{
			"children":[
				49
			],
			"name":"Hips",
			"rotation":[
				-0.023543355986475945,
				-9.784148317926178e-12,
				-9.784148317926178e-12,
				0.9997227787971497
			],
			"translation":[
				0,
				-0.1591097116470337,
				0
			]
		},
		{
			"name":"LeftFoot",
			"rotation":[
				0.49278488755226135,
				0.42973899841308594,
				-0.5010998845100403,
				0.5669094920158386
			],
			"scale":[
				0.9999998211860657,
				0.9999997615814209,
				0.9999998807907104
			],
			"translation":[
				-4.6566128730773926e-09,
				0.6030297875404358,
				1.1990778148174286e-08
			]
		},
		{
			"children":[
				51
			],
			"name":"LeftLowerLeg",
			"rotation":[
				-0.03612770885229111,
				-0.7034893035888672,
				0.016117870807647705,
				0.709604024887085
			],
			"scale":[
				0.9999999403953552,
				0.9999998807907104,
				1
			],
			"translation":[
				9.89530235528946e-10,
				0.5298882722854614,
				-1.862645149230957e-09
			]
		},
		{
			"children":[
				52
			],
			"name":"LeftUpperLeg",
			"rotation":[
				-0.002539142733439803,
				0.03558182716369629,
				-0.9955375790596008,
				0.08736401796340942
			],
			"translation":[
				0.14654865860939026,
				-0.049286603927612305,
				0.008588656783103943
			]
		},
		{
			"name":"RightFoot",
			"rotation":[
				0.4938191771507263,
				0.5731510519981384,
				-0.5000808238983154,
				0.4213784337043762
			],
			"scale":[
				0.9999998807907104,
				0.9999996423721313,
				0.9999998211860657
			],
			"translation":[
				8.381903171539307e-09,
				0.6030296087265015,
				-3.864988684654236e-08
			]
		},
		{
			"children":[
				54
			],
			"name":"RightLowerLeg",
			"rotation":[
				-0.015169044025242329,
				-0.7118651866912842,
				0.03653625771403313,
				0.7012010812759399
			],
			"scale":[
				1,
				1.000000238418579,
				1
			],
			"translation":[
				0,
				0.5298880934715271,
				3.725290298461914e-09
			]
		},
		{
			"children":[
				55
			],
			"name":"RightUpperLeg",
			"rotation":[
				0.0088565768674016,
				-0.03657953441143036,
				0.9955013990402222,
				0.08695106953382492
			],
			"scale":[
				1,
				1.000000238418579,
				1
			],
			"translation":[
				-0.13477623462677002,
				-0.049286603927612305,
				0.008588656783103943
			]
		},
		{
			"mesh":0,
			"name":"face.001",
			"skin":0
		},
		{
			"children":[
				57,
				50,
				53,
				56
			],
			"name":"Armature",
			"translation":[
				0,
				1.2901110649108887,
				0
			]
		}
	],
	"materials":[
		{
			"doubleSided":true,
			"emissiveFactor":[
				1,
				1,
				1
			],
			"emissiveTexture":{
				"index":0
			},
			"extensions":{
				"KHR_materials_emissive_strength":{
					"emissiveStrength":10
				},
				"KHR_materials_specular":{
					"specularColorFactor":[
						1.600000023841858,
						1.600000023841858,
						1.600000023841858
					]
				},
				"KHR_materials_ior":{
					"ior":1.4500000476837158
				}
			},
			"name":"Abomniation",
			"normalTexture":{
				"index":1
			},
			"pbrMetallicRoughness":{
				"baseColorTexture":{
					"index":2
				},
				"metallicFactor":0,
				"roughnessFactor":0.7083333134651184
			}
		}
	],
	"meshes":[
		{
			"extras":{
				"targetNames":[
					"100.000000"
				]
			},
			"name":"face.001",
			"primitives":[
				{
					"attributes":{
						"POSITION":0,
						"NORMAL":1,
						"TEXCOORD_0":2,
						"JOINTS_0":3,
						"WEIGHTS_0":4
					},
					"indices":5,
					"material":0,
					"targets":[
						{
							"POSITION":6,
							"NORMAL":7
						}
					]
				}
			],
			"weights":[
				0
			]
		}
	],
	"textures":[
		{
			"sampler":0,
			"source":0
		},
		{
			"sampler":0,
			"source":1
		},
		{
			"sampler":0,
			"source":2
		}
	],
	"images":[
		{
			"mimeType":"image/png",
			"name":"zengwu_battle@body@e",
			"uri":"zengwu_battlebodye.png"
		},
		{
			"mimeType":"image/png",
			"name":"zengwu_battle@body@N",
			"uri":"zengwu_battlebodyN.png"
		},
		{
			"mimeType":"image/png",
			"name":"zengwu_battle@body@D",
			"uri":"zengwu_battlebodyD.png"
		}
	],
	"skins":[
		{
			"inverseBindMatrices":8,
			"joints":[
				50,
				49,
				48,
				1,
				0,
				24,
				23,
				22,
				21,
				5,
				4,
				3,
				2,
				9,
				8,
				7,
				6,
				13,
				12,
				11,
				10,
				17,
				16,
				15,
				14,
				20,
				19,
				18,
				47,
				46,
				45,
				44,
				28,
				27,
				26,
				25,
				32,
				31,
				30,
				29,
				36,
				35,
				34,
				33,
				40,
				39,
				38,
				37,
				43,
				42,
				41,
				53,
				52,
				51,
				56,
				55,
				54
			],
			"name":"Armature"
		}
	],
	"accessors":[
		{
			"bufferView":0,
			"componentType":5126,
			"count":5253,
			"max":[
				0.7952479124069214,
				2.303786516189575,
				0.369076669216156
			],
			"min":[
				-0.7952479124069214,
				0.002038793172687292,
				-0.4071948528289795
			],
			"type":"VEC3"
		},
		{
			"bufferView":1,
			"componentType":5126,
			"count":5253,
			"type":"VEC3"
		},
		{
			"bufferView":2,
			"componentType":5126,
			"count":5253,
			"type":"VEC2"
		},
		{
			"bufferView":3,
			"componentType":5121,
			"count":5253,
			"type":"VEC4"
		},
		{
			"bufferView":4,
			"componentType":5126,
			"count":5253,
			"type":"VEC4"
		},
		{
			"bufferView":5,
			"componentType":5123,
			"count":26058,
			"type":"SCALAR"
		},
		{
			"componentType":5126,
			"count":5253,
			"max":[
				0.010318508371710777,
				0.009662151336669922,
				0.00010983645915985107
			],
			"min":[
				-0.010440852493047714,
				-0.07509458065032959,
				-0.0984448492527008
			],
			"sparse":{
				"count":639,
				"indices":{
					"bufferView":6,
					"componentType":5123
				},
				"values":{
					"bufferView":7
				}
			},
			"type":"VEC3"
		},
		{
			"componentType":5126,
			"count":5253,
			"sparse":{
				"count":2003,
				"indices":{
					"bufferView":8,
					"componentType":5123
				},
				"values":{
					"bufferView":9
				}
			},
			"type":"VEC3"
		},
		{
			"bufferView":10,
			"componentType":5126,
			"count":57,
			"type":"MAT4"
		}
	],
	"bufferViews":[
		{
			"buffer":0,
			"byteLength":63036,
			"byteOffset":0,
			"target":34962
		},
		{
			"buffer":0,
			"byteLength":63036,
			"byteOffset":63036,
			"target":34962
		},
		{
			"buffer":0,
			"byteLength":42024,
			"byteOffset":126072,
			"target":34962
		},
		{
			"buffer":0,
			"byteLength":21012,
			"byteOffset":168096,
			"target":34962
		},
		{
			"buffer":0,
			"byteLength":84048,
			"byteOffset":189108,
			"target":34962
		},
		{
			"buffer":0,
			"byteLength":52116,
			"byteOffset":273156,
			"target":34963
		},
		{
			"buffer":0,
			"byteLength":1278,
			"byteOffset":325272
		},
		{
			"buffer":0,
			"byteLength":7668,
			"byteOffset":326552
		},
		{
			"buffer":0,
			"byteLength":4006,
			"byteOffset":334220
		},
		{
			"buffer":0,
			"byteLength":24036,
			"byteOffset":338228
		},
		{
			"buffer":0,
			"byteLength":3648,
			"byteOffset":362264
		}
	],
	"samplers":[
		{
			"magFilter":9729,
			"minFilter":9987
		}
	],
	"buffers":[
		{
			"byteLength":365912,
			"uri":"abomination.bin"
		}
	]
}
